<?xml version="1.0" standalone="no"?>
<!DOCTYPE svg PUBLIC "-//W3C//DTD SVG 20010904//EN"
 "http://www.w3.org/TR/2001/REC-SVG-20010904/DTD/svg10.dtd">
<svg version="1.0" xmlns="http://www.w3.org/2000/svg"
 width="612.000000pt" height="408.000000pt" viewBox="0 0 612.000000 408.000000"
 preserveAspectRatio="xMidYMid meet">

<g transform="translate(0.000000,408.000000) scale(0.100000,-0.100000)"
fill="#000000" stroke="none">
<path d="M5390 3971 c0 -5 -3 -18 -6 -28 -6 -16 -5 -16 9 2 19 23 21 35 7 35
-5 0 -10 -4 -10 -9z"/>
<path d="M5351 3874 c0 -11 3 -14 6 -6 3 7 2 16 -1 19 -3 4 -6 -2 -5 -13z"/>
<path d="M5300 3775 c0 -8 4 -15 10 -15 5 0 7 7 4 15 -4 8 -8 15 -10 15 -2 0
-4 -7 -4 -15z"/>
<path d="M5280 3747 c0 -12 -18 -22 -60 -34 -60 -18 -78 -33 -40 -33 11 0 20
-7 20 -15 0 -8 6 -25 13 -36 10 -17 10 -23 0 -26 -18 -6 -16 -43 1 -43 17 0
22 -13 31 -74 4 -25 11 -46 15 -46 10 0 17 -29 29 -115 16 -111 31 -104 31 13
0 61 -4 102 -10 102 -6 0 -9 33 -8 83 1 45 3 63 5 40 5 -48 23 -59 23 -14 0
54 -13 94 -32 98 -19 6 -26 33 -8 33 6 0 8 16 6 36 -5 38 -16 59 -16 31z"/>
<path d="M5317 3206 c-4 -10 -5 -21 -2 -24 9 -9 17 6 13 25 -3 17 -4 17 -11
-1z"/>
<path d="M2595 2701 c-3 -5 -1 -12 5 -16 5 -3 10 1 10 9 0 18 -6 21 -15 7z"/>
<path d="M2417 2493 c-44 -65 -87 -113 -99 -113 -16 0 -37 -32 -38 -57 0 -12
-5 -25 -11 -29 -6 -3 -9 -15 -6 -25 3 -10 1 -22 -4 -25 -5 -3 -9 1 -9 9 0 7
-19 24 -42 37 -33 18 -59 24 -108 25 l-64 0 -9 35 c-5 19 -16 53 -24 74 -13
35 -13 40 1 48 42 23 2 68 -46 52 -13 -4 -36 -7 -53 -6 -44 3 -92 -30 -100
-68 -9 -41 18 -104 52 -119 13 -6 23 -17 21 -24 -6 -16 -89 -57 -106 -52 -7 3
-11 1 -8 -4 3 -5 -1 -11 -9 -14 -8 -4 -23 -24 -34 -46 -14 -26 -26 -38 -38
-37 -10 2 -12 1 -5 -1 17 -6 15 -14 -13 -48 -16 -20 -25 -25 -25 -14 0 8 5 20
12 27 9 9 8 12 -4 12 -9 0 -19 -6 -21 -12 -4 -9 -6 -8 -6 3 -1 8 4 20 11 27 9
9 8 12 -5 12 -10 0 -19 11 -23 27 -7 24 -8 25 -15 7 -4 -11 -12 -128 -18 -260
-10 -210 -26 -498 -50 -914 -4 -69 -7 -126 -6 -127 1 -2 28 8 61 21 185 76
184 75 184 51 0 -8 -3 -14 -8 -12 -10 3 -62 -38 -62 -50 0 -4 -31 -18 -70 -31
-38 -12 -77 -25 -87 -29 -11 -4 -14 -3 -9 5 4 6 -5 5 -21 -3 -15 -8 -33 -15
-40 -15 -6 0 -33 -11 -60 -24 -26 -14 -61 -28 -78 -31 -16 -4 -88 -29 -160
-56 -71 -26 -179 -62 -240 -79 -60 -17 -121 -35 -135 -40 -206 -73 -259 -90
-266 -88 -5 2 -125 -35 -267 -82 l-258 -84 2 -88 c2 -49 4 -88 5 -88 2 0 25
14 52 31 28 17 58 29 68 27 12 -2 2 -13 -35 -35 -29 -18 -58 -33 -64 -34 -7 0
-3 -4 8 -8 19 -8 18 -9 -7 -21 -26 -12 -28 -18 -28 -71 l0 -59 3060 0 3060 0
0 267 0 268 -38 31 c-122 100 -320 208 -377 206 -20 -1 -42 7 -56 19 -27 23
-55 21 -53 -4 2 -17 -5 -18 -80 -11 -44 3 -86 11 -93 16 -6 5 -67 11 -135 13
-67 2 -176 11 -241 19 -65 9 -123 16 -130 16 -13 0 -37 44 -37 67 0 16 4 16
106 4 43 -6 133 -15 199 -20 66 -6 203 -18 305 -26 250 -22 264 -25 372 -93
206 -130 242 -152 250 -152 4 0 8 80 8 178 0 184 -4 202 -42 202 -10 0 -23 9
-30 20 -7 11 -21 20 -30 20 -14 0 -18 8 -18 40 0 27 -4 40 -13 40 -8 0 -20 18
-27 40 -11 34 -17 40 -41 40 -30 0 -79 41 -79 65 0 8 -8 15 -18 15 -9 0 -23 9
-30 20 -7 11 -20 20 -30 20 -30 0 -42 21 -42 72 0 40 -3 48 -18 48 -13 0 -23
-13 -32 -42 l-13 -43 -16 83 c-15 79 -26 101 -33 65 -2 -10 -4 30 -3 89 0 73
-4 111 -12 119 -7 7 -13 21 -13 31 0 10 -3 18 -7 18 -5 0 -9 -70 -10 -155 -2
-127 -6 -160 -20 -182 -14 -22 -18 -23 -23 -8 -5 14 -12 11 -45 -19 -30 -28
-47 -36 -77 -36 -31 0 -38 -4 -38 -20 0 -26 -16 -26 -32 0 -10 16 -24 20 -70
20 -43 0 -58 4 -58 14 0 10 -22 16 -80 21 -69 6 -80 10 -80 26 0 24 -9 24 -26
2 -13 -17 -15 -17 -28 0 -9 12 -27 17 -60 17 -25 0 -46 5 -46 10 0 6 -14 10
-31 10 -17 0 -59 7 -92 16 -38 10 -89 14 -132 12 -64 -3 -70 -1 -70 17 0 19
-8 20 -119 23 -82 2 -123 -1 -130 -9 -8 -9 -7 -11 5 -6 9 3 21 2 28 -3 7 -4
-23 -6 -67 -4 -45 3 -83 1 -85 -3 -3 -5 -3 -20 0 -36 6 -31 26 -34 80 -15 27
10 41 9 80 -5 54 -19 93 -22 93 -7 0 6 11 10 25 10 14 0 25 -2 25 -4 0 -12
-29 -68 -30 -57 0 8 -2 12 -5 9 -3 -3 9 -34 26 -69 18 -35 34 -58 36 -52 3 7
-3 23 -12 37 -15 23 -15 27 -1 41 14 14 16 14 26 -4 15 -29 12 -48 -5 -25 -19
25 -19 11 0 -26 11 -22 12 -29 2 -33 -8 -3 16 -59 71 -169 82 -161 84 -164
113 -160 31 4 38 -8 16 -27 -10 -8 -17 -7 -26 2 -17 17 0 -21 91 -199 43 -83
74 -154 71 -158 -20 -19 -41 9 -112 152 l-79 158 -179 22 c-98 13 -203 24
-233 27 -60 4 -61 6 -46 72 7 28 5 31 -13 26 -15 -4 -21 -1 -21 11 0 24 37 20
45 -5 6 -17 9 -19 16 -8 7 11 9 11 9 -2 0 -20 16 -23 200 -44 180 -20 172 -20
159 9 -9 18 -22 25 -58 30 -25 3 -93 12 -151 20 -57 8 -106 13 -109 11 -2 -3
-12 0 -23 6 -38 21 -99 20 -126 -1 -34 -27 -43 -25 -31 6 5 15 7 29 5 32 -6 6
-8 1 -66 -168 -24 -69 -45 -127 -47 -129 -2 -3 -9 1 -15 7 -9 9 -7 27 6 74 10
35 22 71 27 80 12 24 11 28 -7 28 -10 0 -14 -6 -10 -15 4 -11 -1 -15 -17 -15
-13 0 -28 -5 -34 -11 -8 -8 -13 -8 -17 0 -5 7 -44 11 -99 11 -55 0 -87 4 -81
9 5 5 20 11 34 14 16 3 10 5 -17 6 -23 0 -48 8 -57 16 -16 16 -38 20 -50 8 -4
-5 -70 -8 -146 -8 -76 0 -133 3 -126 7 6 5 2 8 -12 8 -13 0 -20 4 -17 10 3 6
5 10 3 10 -2 0 -61 7 -131 15 -71 8 -133 12 -139 9 -17 -11 -89 18 -84 33 3 8
-2 13 -14 13 -11 0 -20 -6 -20 -13 0 -15 -77 -14 -165 3 -27 5 -97 14 -154 20
-69 7 -111 16 -122 26 -14 13 -22 13 -39 4 -24 -13 -110 -5 -110 10 0 4 -12
11 -26 14 -30 8 -23 20 16 31 20 5 22 4 10 -5 -11 -8 17 -10 110 -8 69 1 130
-1 135 -4 6 -3 30 -9 55 -13 38 -6 43 -5 33 7 -8 9 -9 18 -1 28 8 13 9 12 5
-2 -3 -9 0 -22 8 -28 7 -6 11 -19 8 -30 -4 -15 -1 -18 15 -13 11 3 23 12 26
20 5 11 2 13 -10 9 -12 -4 -15 -2 -10 9 3 9 0 15 -9 15 -8 0 -15 8 -15 18 0
14 2 15 10 2 14 -23 20 -7 10 31 -5 18 -12 47 -15 62 -3 17 -15 31 -31 37 -13
5 -27 17 -30 25 -4 8 -15 15 -25 15 -16 0 -19 -8 -19 -45 0 -39 -26 -114 -40
-115 -6 0 -31 45 -63 112 -14 30 -29 48 -39 48 -14 0 -18 9 -18 40 0 27 -4 40
-13 40 -8 0 -20 18 -27 40 -7 22 -19 40 -25 40 -16 0 -24 31 -27 100 l-1 55
-7 -60 c-6 -53 -7 -56 -10 -20 -1 22 -5 126 -9 230 -6 181 -7 190 -26 188 -10
-1 -27 3 -37 8 -23 12 -56 -4 -68 -34 -8 -21 -9 -21 -10 -2 -1 14 -5 10 -16
-15 -13 -33 -14 -33 -8 -5 13 70 16 107 7 116 -6 6 -8 -2 -5 -21 5 -35 -13
-41 -22 -7 -4 15 5 39 28 77 30 49 39 56 78 63 24 5 45 11 47 13 6 5 21 97 24
144 2 23 21 63 54 113 55 83 63 107 10 30z m-677 -457 c0 -1 -9 -22 -21 -45
l-21 -43 36 -33 c34 -30 49 -54 26 -40 -5 3 -10 -1 -10 -9 0 -20 1 -21 -59 10
-41 22 -50 31 -46 48 2 11 6 41 10 66 8 60 19 71 56 58 16 -5 29 -11 29 -12z
m70 -51 c0 -5 -5 -3 -10 5 -5 8 -10 20 -10 25 0 6 5 3 10 -5 5 -8 10 -19 10
-25z m2735 -545 c-3 -5 -2 -10 2 -10 5 0 22 -22 38 -49 16 -28 33 -47 38 -44
6 3 7 1 3 -6 -4 -6 2 -24 14 -40 12 -19 16 -32 10 -36 -16 -10 -50 5 -50 21 0
9 -5 12 -12 8 -7 -4 -8 -3 -4 4 8 14 -24 73 -35 66 -10 -6 -23 61 -15 81 3 8
8 15 11 15 4 0 3 -4 0 -10z m935 -88 c0 -10 -22 -32 -32 -32 -4 0 -8 9 -8 20
0 13 7 20 20 20 11 0 20 -4 20 -8z m-791 -33 c10 -18 15 -19 22 -8 6 10 9 7 9
-11 0 -14 -8 -30 -19 -37 -17 -11 -22 -8 -40 21 -12 18 -21 38 -21 45 0 19 35
12 49 -10z m988 -31 c-3 -8 -6 -5 -6 6 -1 11 2 17 5 13 3 -3 4 -12 1 -19z
m-733 -33 c19 -14 14 -35 -8 -35 -18 0 -39 27 -31 40 8 13 16 12 39 -5z m-299
-35 c3 -5 -1 -10 -10 -10 -9 0 -13 5 -10 10 3 6 8 10 10 10 2 0 7 -4 10 -10z
m-2045 -36 c0 -2 -11 -4 -25 -4 -14 0 -25 4 -25 9 0 4 11 6 25 3 14 -2 25 -6
25 -8z m-73 0 c-3 -3 -12 -4 -19 -1 -8 3 -5 6 6 6 11 1 17 -2 13 -5z m2232
-106 c34 -56 61 -105 61 -110 0 -5 -8 -8 -17 -6 -10 2 -35 32 -55 68 -39 67
-54 77 -116 79 -47 1 -30 21 19 21 36 0 39 2 29 19 -13 26 -13 31 4 31 8 0 42
-46 75 -102z m-2441 71 c-10 -5 -15 -16 -12 -24 4 -10 0 -15 -11 -15 -9 0 -13
5 -10 10 3 6 1 10 -4 10 -6 0 -11 -5 -11 -11 0 -6 -7 -8 -16 -5 -8 3 -12 2 -9
-4 3 -6 1 -10 -4 -10 -6 0 -11 7 -11 15 0 17 52 44 85 44 18 0 18 -1 3 -10z
m-285 -106 c-2 -7 4 -10 12 -7 8 4 15 2 15 -2 0 -9 -102 -54 -121 -54 -16 0
-1 52 19 68 21 16 78 12 75 -5z m2137 -23 c0 -5 -4 -10 -10 -10 -5 0 -10 5
-10 10 0 6 5 10 10 10 6 0 10 -4 10 -10z m-1174 -36 c23 -15 26 -15 43 0 20
18 38 21 43 5 2 -7 12 -7 31 0 21 8 45 7 97 -6 38 -9 68 -18 66 -20 -6 -7
-111 -45 -160 -58 -47 -13 -53 -13 -110 11 -34 14 -74 30 -91 36 l-30 12 40
18 c49 21 41 21 71 2z m1200 -20 c-3 -9 -9 -27 -12 -40 -7 -28 -10 -29 -31 -8
-9 8 -22 13 -30 10 -29 -12 -6 19 28 36 42 22 53 23 45 2z m1521 -41 c-3 -10
-5 -4 -5 12 0 17 2 24 5 18 2 -7 2 -21 0 -30z m-2230 -39 c-3 -3 -12 -4 -19
-1 -8 3 -5 6 6 6 11 1 17 -2 13 -5z m86 -1 c-7 -2 -21 -2 -30 0 -10 3 -4 5 12
5 17 0 24 -2 18 -5z m1312 -33 c3 -5 1 -10 -4 -10 -6 0 -11 5 -11 10 0 6 2 10
4 10 3 0 8 -4 11 -10z m-3392 -127 c-7 -2 -19 -2 -25 0 -7 3 -2 5 12 5 14 0
19 -2 13 -5z m787 -33 c0 -5 -2 -10 -4 -10 -3 0 -8 5 -11 10 -3 6 -1 10 4 10
6 0 11 -4 11 -10z m550 0 c275 -15 364 -22 385 -31 13 -5 6 -6 -20 -3 -22 3
-149 7 -282 8 -199 3 -243 1 -243 -10 0 -8 -7 -14 -15 -14 -18 0 -20 17 -2 23
6 2 0 4 -15 4 -16 0 -28 -3 -28 -8 0 -5 -11 -9 -25 -9 -14 0 -25 4 -25 9 0 5
-49 13 -110 16 -60 4 -110 11 -110 16 0 11 277 11 490 -1z m-612 -12 c-5 -15
-68 -24 -68 -9 0 9 21 16 58 20 8 0 12 -5 10 -11z m-128 -13 c0 -8 -4 -15 -9
-15 -13 0 -22 16 -14 24 11 11 23 6 23 -9z m40 11 c0 -3 -4 -8 -10 -11 -5 -3
-10 -1 -10 4 0 6 5 11 10 11 6 0 10 -2 10 -4z m1147 -22 c-3 -3 -12 -4 -19 -1
-8 3 -5 6 6 6 11 1 17 -2 13 -5z m-2027 -8 c0 -2 -11 -6 -25 -8 -13 -3 -22 -1
-19 3 5 9 44 13 44 5z m1514 -4 c2 -4 -13 -6 -35 -4 -21 2 -39 6 -39 8 0 7 69
4 74 -4z m-1829 -22 c-3 -5 -11 -10 -16 -10 -6 0 -7 5 -4 10 3 6 11 10 16 10
6 0 7 -4 4 -10z m381 -11 c3 -5 -23 -9 -58 -8 -45 1 -56 3 -38 8 35 11 89 11
96 0z m719 1 c3 -5 -1 -10 -10 -10 -9 0 -13 5 -10 10 3 6 8 10 10 10 2 0 7 -4
10 -10z m1238 3 c-7 -2 -19 -2 -25 0 -7 3 -2 5 12 5 14 0 19 -2 13 -5z m-2375
-9 c-8 -7 -122 -34 -126 -29 -5 5 88 33 112 34 11 1 17 -2 14 -5z m2412 -24
c0 -21 -15 -27 -25 -10 -3 5 -20 14 -38 19 -31 9 -30 9 16 10 41 1 47 -2 47
-19z m70 10 c20 -6 21 -8 5 -8 -11 0 -31 4 -45 8 -20 6 -21 8 -5 8 11 0 31 -4
45 -8z m-2665 -51 c4 -6 1 -9 -6 -7 -22 4 -79 -23 -72 -35 3 -6 1 -7 -5 -3 -6
4 -25 0 -41 -9 -39 -20 -58 -20 -41 -1 6 8 19 12 27 9 11 -4 14 -2 9 5 -6 11
5 16 25 14 4 -1 24 7 45 18 46 23 51 23 59 9z m245 1 c0 -5 12 -10 28 -10 39
0 73 -11 66 -21 -3 -5 12 -9 33 -9 28 0 34 -3 23 -10 -8 -5 -26 -10 -38 -10
-13 0 -38 -6 -55 -14 -18 -8 -49 -20 -69 -26 -21 -6 -38 -16 -38 -21 0 -5 -7
-9 -16 -9 -10 0 -14 -6 -10 -15 3 -9 0 -15 -10 -15 -12 0 -13 4 -3 21 10 20 9
21 -23 14 -18 -4 -34 -11 -36 -15 -2 -4 -11 -6 -21 -3 -11 3 -27 0 -37 -5 -11
-5 -39 -13 -64 -17 -44 -7 -45 -7 -25 12 13 12 38 19 70 20 64 3 218 46 223
62 3 9 -8 11 -44 7 -37 -4 -41 -3 -19 3 17 5 45 9 63 10 55 2 25 21 -33 21
-29 0 -61 3 -70 6 -14 6 -13 9 7 19 28 16 98 19 98 5z m193 3 c-7 -2 -21 -2
-30 0 -10 3 -4 5 12 5 17 0 24 -2 18 -5z m-60 -10 c-7 -2 -19 -2 -25 0 -7 3
-2 5 12 5 14 0 19 -2 13 -5z m87 -67 c0 -2 -16 -6 -35 -8 -19 -2 -35 0 -35 4
0 4 16 8 35 8 19 0 35 -2 35 -4z m-690 -17 c0 -5 -4 -7 -10 -4 -5 3 -10 1 -10
-4 0 -6 -8 -11 -17 -11 -10 0 -26 -7 -36 -14 -10 -8 -27 -11 -39 -8 -14 3 -19
1 -14 -6 8 -14 -28 -25 -55 -17 -30 10 -8 22 53 30 26 4 48 11 48 16 0 11 37
27 63 28 9 1 17 -4 17 -10z m4387 -36 c-3 -10 -5 -4 -5 12 0 17 2 24 5 18 2
-7 2 -21 0 -30z m-3876 -6 c-4 -4 -22 -4 -41 -1 -29 6 -31 9 -16 19 13 10 22
10 41 1 13 -6 21 -14 16 -19z m206 7 c2 -13 1 -15 -4 -4 -3 8 -11 19 -17 23
-7 6 -6 7 4 4 8 -2 16 -12 17 -23z m681 -19 c23 -4 42 -10 42 -14 0 -8 -144
-6 -159 3 -35 22 22 27 117 11z m-788 -11 c-15 -17 -61 -15 -68 4 -2 8 9 12
38 12 37 0 41 -2 30 -16z m-800 -14 c0 -5 -4 -10 -10 -10 -5 0 -10 5 -10 10 0
6 5 10 10 10 6 0 10 -4 10 -10z m505 0 c-3 -5 -14 -10 -23 -10 -14 0 -15 -2
-2 -10 8 -5 12 -10 10 -12 -3 -2 -20 -13 -37 -26 -36 -25 -45 -16 -13 13 11
10 17 21 15 26 -6 9 23 28 43 29 7 0 10 -4 7 -10z m3360 -10 c4 -6 1 -18 -6
-26 -12 -14 -14 -14 -20 3 -10 29 11 47 26 23z m-336 -16 c10 -9 -35 -3 -49 6
-11 8 -7 9 15 4 17 -4 32 -8 34 -10z m-3665 -5 c-7 -12 4 -10 63 6 10 3 5 -1
-12 -9 -43 -19 -85 -30 -65 -17 20 14 1 14 -39 0 -18 -6 -30 -16 -28 -23 3 -7
-11 -12 -37 -13 -37 -1 -39 -1 -16 9 14 6 43 19 65 28 35 16 62 26 73 29 2 1
0 -4 -4 -10z m736 -7 c0 -50 -50 -100 -81 -82 -11 7 -9 15 12 37 14 15 32 36
40 45 18 22 29 22 29 0z m239 -23 c-9 -17 -13 -18 -26 -8 -9 8 -11 15 -5 17 6
2 8 10 5 19 -5 13 -3 14 16 4 18 -10 19 -15 10 -32z m-659 21 c0 -5 -4 -10 -9
-10 -5 0 -24 -12 -41 -26 -17 -15 -33 -24 -36 -22 -2 3 7 13 21 22 14 9 23 21
20 26 -4 7 10 15 38 19 4 0 7 -3 7 -9z m3386 -55 c111 -54 141 -75 109 -75 -8
0 -18 7 -21 15 -4 8 -12 15 -19 15 -10 0 -181 85 -194 96 -16 15 29 -4 125
-51z m-2606 35 c0 -5 -5 -10 -11 -10 -5 0 -7 5 -4 10 3 6 8 10 11 10 2 0 4 -4
4 -10z m-1045 -20 c-3 -5 -14 -10 -23 -10 -15 0 -15 2 -2 10 20 13 33 13 25 0z
m4205 0 c0 -5 -7 -10 -16 -10 -8 0 -12 5 -9 10 3 6 10 10 16 10 5 0 9 -4 9
-10z m-3445 -40 c13 -6 15 -9 5 -9 -8 0 -22 4 -30 9 -18 12 -2 12 25 0z m-381
-22 c-16 -12 -47 -39 -69 -60 -22 -21 -50 -38 -62 -38 -28 0 -30 16 -4 25 11
3 46 26 77 50 32 25 64 45 72 45 9 0 3 -9 -14 -22z m329 15 c-7 -2 -21 -2 -30
0 -10 3 -4 5 12 5 17 0 24 -2 18 -5z m423 -18 c19 -18 11 -19 -16 -3 -16 10
-24 10 -40 0 -19 -11 -28 -4 -13 11 12 12 54 7 69 -8z m-366 -5 c0 -5 -4 -10
-10 -10 -5 0 -10 5 -10 10 0 6 5 10 10 10 6 0 10 -4 10 -10z m110 0 c0 -5 -5
-10 -11 -10 -5 0 -7 5 -4 10 3 6 8 10 11 10 2 0 4 -4 4 -10z m-55 -26 c-11 -8
-28 -21 -38 -29 -9 -8 -21 -15 -26 -15 -5 0 -11 -4 -13 -8 -1 -5 -20 -12 -40
-15 -29 -4 -38 -2 -38 9 0 16 -16 19 -25 4 -3 -5 -26 -9 -50 -8 -37 2 -43 5
-32 16 9 8 44 13 105 14 84 2 91 3 101 25 8 17 19 23 43 23 32 -1 32 -1 13
-16z m83 -31 c-2 -10 -12 -19 -22 -21 -14 -3 -17 0 -13 11 3 9 1 18 -6 21 -7
2 1 5 16 5 22 1 28 -3 25 -16z m782 2 c14 -16 10 -18 -14 -9 -9 3 -16 10 -16
15 0 14 16 11 30 -6z m-840 -9 c0 -20 -47 -52 -87 -59 -18 -4 -33 -4 -33 -1 0
13 30 34 49 34 12 0 21 6 21 14 0 14 14 24 38 25 6 1 12 -5 12 -13z m147 8
c-3 -3 -12 -4 -19 -1 -8 3 -5 6 6 6 11 1 17 -2 13 -5z m-64 -53 c-5 -3 -12
-14 -16 -24 -4 -10 -11 -16 -16 -13 -5 4 -23 -2 -40 -11 -25 -15 -32 -16 -43
-5 -11 11 -9 17 11 33 13 10 33 19 45 19 11 0 30 7 41 16 14 10 21 11 24 3 2
-6 -1 -14 -6 -18z m-715 -7 c-16 -8 -28 -19 -28 -25 0 -6 -9 -8 -20 -4 -11 3
-20 2 -20 -3 0 -9 -73 -62 -85 -62 -3 0 -5 5 -5 10 0 6 7 10 15 10 7 0 18 6
22 14 17 30 81 72 114 74 l34 2 -27 -16z m766 -8 c-3 -9 -13 -16 -22 -16 -13
0 -12 3 3 20 20 23 29 21 19 -4z m-364 -46 c0 -5 -10 -14 -21 -21 -12 -6 -19
-7 -17 -2 3 4 8 16 11 26 7 18 27 15 27 -3z m510 -12 c0 -5 -4 -7 -9 -4 -5 4
-23 -2 -40 -11 -27 -16 -33 -16 -41 -3 -13 20 -1 33 17 18 14 -11 15 -10 9 9
-7 20 -5 21 29 11 19 -6 35 -15 35 -20z m-193 16 c-3 -3 -12 -4 -19 -1 -8 3
-5 6 6 6 11 1 17 -2 13 -5z m-67 -24 c0 -5 -5 -10 -11 -10 -5 0 -7 5 -4 10 3
6 8 10 11 10 2 0 4 -4 4 -10z"/>
<path d="M318 393 c7 -3 16 -2 19 1 4 3 -2 6 -13 5 -11 0 -14 -3 -6 -6z"/>
<path d="M1593 2295 c0 -33 2 -45 4 -27 2 18 2 45 0 60 -2 15 -4 0 -4 -33z"/>
<path d="M2221 2014 c0 -11 3 -14 6 -6 3 7 2 16 -1 19 -3 4 -6 -2 -5 -13z"/>
<path d="M800 2010 c0 -5 -7 -10 -15 -10 -8 0 -15 -4 -15 -8 0 -4 47 -8 105
-9 83 0 105 2 105 13 0 8 -5 14 -11 14 -5 0 -7 -4 -4 -10 4 -6 -5 -10 -19 -10
-16 0 -26 6 -26 15 0 12 -13 15 -60 15 -33 0 -60 -4 -60 -10z m98 -7 c-10 -2
-26 -2 -35 0 -10 3 -2 5 17 5 19 0 27 -2 18 -5z"/>
<path d="M760 1910 c0 -24 25 -27 34 -4 9 23 8 24 -14 24 -13 0 -20 -7 -20
-20z"/>
<path d="M4323 1363 c-18 -60 -23 -68 -47 -71 -14 -2 -39 -10 -54 -18 -32 -16
-14 -19 21 -3 18 8 30 8 43 1 16 -9 16 -12 4 -15 -81 -26 -77 -26 -90 -3 -9
18 -9 30 4 61 15 36 21 63 11 54 -8 -9 -95 -259 -89 -259 3 0 10 14 16 30 8
23 25 38 71 60 33 17 62 29 63 27 2 -2 -5 -30 -16 -62 -20 -58 -28 -112 -10
-70 26 63 33 81 36 95 1 8 4 24 7 35 2 11 13 24 25 30 25 11 29 25 7 25 -19 0
-19 -5 6 75 11 37 19 69 16 71 -2 2 -13 -26 -24 -63z"/>
<path d="M4426 1307 c2 -7 -6 -24 -18 -38 -39 -42 -60 -79 -46 -80 7 0 4 -4
-7 -9 -19 -7 -18 -9 8 -19 16 -6 34 -11 42 -11 8 0 17 -5 20 -11 7 -10 -17 -8
-90 7 -11 2 -15 1 -9 -2 13 -6 6 -45 -10 -56 -15 -10 36 -27 108 -37 43 -6 63
-5 68 3 6 8 8 8 8 0 0 -7 16 -14 35 -16 40 -5 41 -1 18 46 -13 26 -23 34 -35
30 -12 -4 -18 0 -18 11 0 11 5 15 15 12 20 -8 6 25 -41 99 -21 32 -37 60 -36
62 6 7 1 22 -8 22 -5 0 -7 -6 -4 -13z m57 -174 c-7 -2 -21 -2 -30 0 -10 3 -4
5 12 5 17 0 24 -2 18 -5z m57 -74 c0 -5 -4 -9 -10 -9 -5 0 -10 7 -10 16 0 8 5
12 10 9 6 -3 10 -10 10 -16z"/>
<path d="M4090 1220 c0 -5 7 -10 15 -10 8 0 15 5 15 10 0 6 -7 10 -15 10 -8 0
-15 -4 -15 -10z"/>
<path d="M1463 1150 c0 -30 2 -43 4 -27 2 15 2 39 0 55 -2 15 -4 2 -4 -28z"/>
</g>
</svg>
